# xmcd
#
# Track frame offsets:
#	150
#	16489
#	28216
#	38560
#	49701
#	62418
#	73542
#	84968
#	94916
#	106187
#	122314
#	138008
#	149503
#	159772
#
# Disc length: 2265 seconds
#
# Revision: 1
# Processed by: cddbd v1.5.2PL0 Copyright (c) Steve Scherf et al.
# Submitted via: audiograbber 1.83.01
#
DISCID=a708d70e
DTITLE=johnny bush - funny how time slips away
DYEAR=2010
DGENRE=Country
TTITLE0=funny how time slips away
TTITLE1=wine me up
TTITLE2=lonely street
TTITLE3=darkness on the face of the earth
TTITLE4=it's all over but the crying
TTITLE5=until my dreams come true
TTITLE6=don't you ever get tired
TTITLE7=play together again again
TTITLE8=today i started loving you again
TTITLE9=deepening snow
TTITLE10=mama's hungry eyes
TTITLE11=darling you know i wouldn't lie
TTITLE12=i'll go to a stranger
TTITLE13=way to survive
EXTD=
EXTT0=
EXTT1=
EXTT2=
EXTT3=
EXTT4=
EXTT5=
EXTT6=
EXTT7=
EXTT8=
EXTT9=
EXTT10=
EXTT11=
EXTT12=
EXTT13=
PLAYORDER=
